<svg width="24" height="25" viewBox="0 0 24 25" fill="none" xmlns="http://www.w3.org/2000/svg">
<path d="M12 22.3929C10.6333 22.3929 9.34167 22.1312 8.125 21.6078C6.90833 21.0844 5.84583 20.37 4.9375 19.4644C4.02917 18.5588 3.3125 17.4996 2.7875 16.2866C2.2625 15.0736 2 13.7859 2 12.4234C2 11.0443 2.2625 9.75239 2.7875 8.54774C3.3125 7.34309 4.02917 6.28798 4.9375 5.38241C5.84583 4.47684 6.90833 3.76236 8.125 3.23896C9.34167 2.71556 10.6333 2.45386 12 2.45386C13.3833 2.45386 14.6792 2.71556 15.8875 3.23896C17.0958 3.76236 18.1542 4.47684 19.0625 5.38241C19.9708 6.28798 20.6875 7.34309 21.2125 8.54774C21.7375 9.75239 22 11.0443 22 12.4234C22 13.7859 21.7375 15.0736 21.2125 16.2866C20.6875 17.4996 19.9708 18.5588 19.0625 19.4644C18.1542 20.37 17.0958 21.0844 15.8875 21.6078C14.6792 22.1312 13.3833 22.3929 12 22.3929ZM12 20.3492C12.4333 19.751 12.8083 19.1279 13.125 18.4799C13.4417 17.8319 13.7 17.1423 13.9 16.4112H10.1C10.3 17.1423 10.5583 17.8319 10.875 18.4799C11.1917 19.1279 11.5667 19.751 12 20.3492ZM9.4 19.9504C9.1 19.4021 8.8375 18.833 8.6125 18.2431C8.3875 17.6533 8.2 17.0426 8.05 16.4112H5.1C5.58333 17.242 6.1875 17.9648 6.9125 18.5796C7.6375 19.1944 8.46667 19.6513 9.4 19.9504ZM14.6 19.9504C15.5333 19.6513 16.3625 19.1944 17.0875 18.5796C17.8125 17.9648 18.4167 17.242 18.9 16.4112H15.95C15.8 17.0426 15.6125 17.6533 15.3875 18.2431C15.1625 18.833 14.9 19.4021 14.6 19.9504ZM4.25 14.4173H7.65C7.6 14.085 7.5625 13.7568 7.5375 13.4328C7.5125 13.1088 7.5 12.7723 7.5 12.4234C7.5 12.0745 7.5125 11.738 7.5375 11.414C7.5625 11.09 7.6 10.7618 7.65 10.4295H4.25C4.16667 10.7618 4.10417 11.09 4.0625 11.414C4.02083 11.738 4 12.0745 4 12.4234C4 12.7723 4.02083 13.1088 4.0625 13.4328C4.10417 13.7568 4.16667 14.085 4.25 14.4173ZM9.65 14.4173H14.35C14.4 14.085 14.4375 13.7568 14.4625 13.4328C14.4875 13.1088 14.5 12.7723 14.5 12.4234C14.5 12.0745 14.4875 11.738 14.4625 11.414C14.4375 11.09 14.4 10.7618 14.35 10.4295H9.65C9.6 10.7618 9.5625 11.09 9.5375 11.414C9.5125 11.738 9.5 12.0745 9.5 12.4234C9.5 12.7723 9.5125 13.1088 9.5375 13.4328C9.5625 13.7568 9.6 14.085 9.65 14.4173ZM16.35 14.4173H19.75C19.8333 14.085 19.8958 13.7568 19.9375 13.4328C19.9792 13.1088 20 12.7723 20 12.4234C20 12.0745 19.9792 11.738 19.9375 11.414C19.8958 11.09 19.8333 10.7618 19.75 10.4295H16.35C16.4 10.7618 16.4375 11.09 16.4625 11.414C16.4875 11.738 16.5 12.0745 16.5 12.4234C16.5 12.7723 16.4875 13.1088 16.4625 13.4328C16.4375 13.7568 16.4 14.085 16.35 14.4173ZM15.95 8.43558H18.9C18.4167 7.60479 17.8125 6.882 17.0875 6.26721C16.3625 5.65242 15.5333 5.19548 14.6 4.8964C14.9 5.44472 15.1625 6.01382 15.3875 6.60368C15.6125 7.19354 15.8 7.80418 15.95 8.43558ZM10.1 8.43558H13.9C13.7 7.70448 13.4417 7.01492 13.125 6.3669C12.8083 5.71888 12.4333 5.09579 12 4.49761C11.5667 5.09579 11.1917 5.71888 10.875 6.3669C10.5583 7.01492 10.3 7.70448 10.1 8.43558ZM5.1 8.43558H8.05C8.2 7.80418 8.3875 7.19354 8.6125 6.60368C8.8375 6.01382 9.1 5.44472 9.4 4.8964C8.46667 5.19548 7.6375 5.65242 6.9125 6.26721C6.1875 6.882 5.58333 7.60479 5.1 8.43558Z" fill="#9F80F3"/>
</svg>
