<svg width="23" height="23" viewBox="0 0 23 23" fill="none" xmlns="http://www.w3.org/2000/svg">
<path d="M6.25 0C2.80375 0 0 2.80375 0 6.25V16.25C0 19.6963 2.80375 22.5 6.25 22.5H16.25C19.6963 22.5 22.5 19.6963 22.5 16.25V6.25C22.5 2.80375 19.6963 0 16.25 0H6.25ZM6.25 2.5H16.25C18.3175 2.5 20 4.1825 20 6.25V16.25C20 18.3175 18.3175 20 16.25 20H6.25C4.1825 20 2.5 18.3175 2.5 16.25V6.25C2.5 4.1825 4.1825 2.5 6.25 2.5ZM17.5 3.75C17.1685 3.75 16.8505 3.8817 16.6161 4.11612C16.3817 4.35054 16.25 4.66848 16.25 5C16.25 5.33152 16.3817 5.64946 16.6161 5.88388C16.8505 6.1183 17.1685 6.25 17.5 6.25C17.8315 6.25 18.1495 6.1183 18.3839 5.88388C18.6183 5.64946 18.75 5.33152 18.75 5C18.75 4.66848 18.6183 4.35054 18.3839 4.11612C18.1495 3.8817 17.8315 3.75 17.5 3.75ZM11.25 5C7.80375 5 5 7.80375 5 11.25C5 14.6962 7.80375 17.5 11.25 17.5C14.6962 17.5 17.5 14.6962 17.5 11.25C17.5 7.80375 14.6962 5 11.25 5ZM11.25 7.5C13.3175 7.5 15 9.1825 15 11.25C15 13.3175 13.3175 15 11.25 15C9.1825 15 7.5 13.3175 7.5 11.25C7.5 9.1825 9.1825 7.5 11.25 7.5Z" fill="#666666"/>
</svg>
