<svg width="306" height="48" viewBox="0 0 306 48" fill="none" xmlns="http://www.w3.org/2000/svg">
<path d="M4.416 8.544V35.664H0V0.719999H5.472L17.136 29.328L28.608 0.719999H34.08V35.664H29.472V8.544L19.296 34.32H15.072L4.416 8.544Z" fill="#292929"/>
<path d="M54.7238 17.856C54.7238 14.688 52.9638 13.104 49.4438 13.104C45.9238 13.104 43.2037 14 41.2837 15.792L38.8838 13.488C41.4118 10.96 44.8358 9.696 49.1558 9.696H49.3958C55.6998 9.696 58.8518 13.12 58.8518 19.968V30.816C58.8518 32.096 59.3318 33.696 60.2918 35.616L56.7878 35.52C55.4757 34.752 54.7557 33.44 54.6278 31.584C53.0918 34.24 50.9158 35.728 48.0998 36.048C44.9958 36.048 42.6438 35.344 41.0438 33.936C39.4438 32.528 38.6437 30.832 38.6437 28.848V28.704C38.6437 26.656 39.1238 24.832 40.0838 23.232C41.9718 20.256 46.8197 18.688 54.6278 18.528L54.7238 17.856ZM43.7798 30.816C44.2278 31.52 45.4277 31.872 47.3797 31.872C49.2997 31.872 50.7878 31.504 51.8438 30.768C52.9318 30.064 53.7478 28.8 54.2918 26.976C54.5158 26.336 54.6278 25.84 54.6278 25.488V21.696C50.8837 21.824 48.0198 22.496 46.0358 23.712C44.0518 24.896 43.0597 26.416 43.0597 28.272C43.0597 29.296 43.2998 30.144 43.7798 30.816Z" fill="#292929"/>
<path d="M78.171 31.104L78.459 32.832C77.723 34.848 75.771 35.856 72.603 35.856C68.187 35.856 65.979 33.6 65.979 29.088V14.4H62.475V10.896H65.979V3.456H70.347V10.896H77.499V14.4H70.347V28.416C70.347 31.04 71.675 32.352 74.331 32.352C76.059 32.352 77.339 31.936 78.171 31.104Z" fill="#292929"/>
<path d="M98.7889 35.664V18.96C98.7889 15.088 97.0769 13.152 93.6529 13.152C90.9969 13.152 89.2529 14.048 88.4209 15.84C87.6209 17.6 87.2209 19.616 87.2209 21.888V35.664H82.7569V0H87.2209V14.352C88.6929 11.248 90.7409 9.696 93.3649 9.696C100.117 9.696 103.493 12.512 103.493 18.144V35.664H98.7889Z" fill="#292929"/>
<path d="M129.906 24.72H112.674C112.93 27.376 113.682 29.248 114.93 30.336C116.21 31.456 117.922 32.016 120.066 32.016C123.874 32.016 126.914 31.008 129.186 28.992V33.6C126.562 35.264 123.506 36.096 120.018 36.096C116.53 36.096 113.714 34.88 111.57 32.448C109.394 29.984 108.306 26.88 108.306 23.136C108.306 19.424 109.41 16.32 111.618 13.824C113.826 11.328 116.658 10.08 120.114 10.08C122.002 10.08 123.634 10.448 125.01 11.184C128.274 13.136 129.906 17.648 129.906 24.72ZM120.066 14.352H119.97C115.682 14.352 113.25 16.544 112.674 20.928H126.162C126.002 18.656 125.474 16.992 124.578 15.936C123.65 14.88 122.146 14.352 120.066 14.352Z" fill="#292929"/>
<path d="M138.703 10.416V23.424C138.703 29.28 140.399 32.208 143.791 32.208C148.463 32.208 150.799 29.088 150.799 22.848V10.416H155.263V35.664H150.799V31.68C149.583 34.72 147.119 36.24 143.407 36.24C137.295 36.176 134.239 32.224 134.239 24.384V10.416H138.703Z" fill="#292929"/>
<path d="M178.739 15.744L175.523 16.656C175.075 15.248 174.179 14.384 172.835 14.064C171.747 13.776 170.563 13.632 169.283 13.632C168.035 13.632 167.203 13.648 166.787 13.68C165.635 13.776 164.771 14.096 164.195 14.64C163.619 15.152 163.331 15.984 163.331 17.136C163.331 18.256 163.875 19.088 164.963 19.632C166.051 20.176 167.363 20.544 168.899 20.736C170.467 20.96 172.035 21.248 173.603 21.6C175.139 21.952 176.451 22.688 177.539 23.808C178.627 24.896 179.171 26.464 179.171 28.512C179.171 30.528 178.339 32.24 176.675 33.648C174.979 35.056 172.467 35.76 169.139 35.76C162.771 35.76 159.187 33.552 158.387 29.136L162.083 28.416C162.563 30.592 164.915 31.68 169.139 31.68C171.187 31.68 172.675 31.36 173.603 30.72C174.531 30.08 174.995 28.992 174.995 27.456C174.995 26.4 174.435 25.632 173.315 25.152C172.227 24.672 170.899 24.336 169.331 24.144C167.763 23.952 166.211 23.696 164.675 23.376C163.107 23.056 161.763 22.368 160.643 21.312C159.555 20.256 159.011 18.8 159.011 16.944C159.011 12.144 162.275 9.744 168.803 9.744C171.523 9.744 173.699 10.176 175.331 11.04C176.963 11.872 178.099 13.44 178.739 15.744Z" fill="#292929"/>
<path d="M224.16 10.656V11.136C224.16 12.992 223.52 14.944 222.24 16.992C221.056 19.104 218.496 20.432 214.56 20.976L225.84 35.76H219.888L210.576 21.264C209.968 21.296 207.264 21.312 202.464 21.312V35.664H198V0.719999H210.528C211.968 0.719999 212.832 0.735999 213.12 0.767999C216.832 0.927999 219.904 2.336 222.336 4.992C223.552 6.4 224.16 8.288 224.16 10.656ZM202.464 17.664H211.296C214.752 17.664 217.184 16.72 218.592 14.832C219.136 14.096 219.408 12.848 219.408 11.088C219.408 9.328 219.12 7.984 218.544 7.056C217.488 5.264 215.28 4.368 211.92 4.368H202.464V17.664Z" fill="#292929"/>
<path d="M249.513 9.696H254.889C252.297 16.352 250.361 21.376 249.081 24.768C247.769 28.128 246.169 32.24 244.281 37.104L243.129 40.032C241.017 44.704 238.761 47.04 236.361 47.04C233.865 47.04 232.121 46.736 231.129 46.128L231.753 43.248C232.681 43.632 233.673 43.824 234.729 43.824C236.201 43.824 237.721 41.936 239.289 38.16C240.089 36.464 240.489 35.488 240.489 35.232C239.369 32.544 235.769 24.032 229.689 9.696H234.729L242.265 31.248L249.513 9.696Z" fill="#292929"/>
<path d="M273.63 17.856C273.63 14.688 271.87 13.104 268.35 13.104C264.83 13.104 262.11 14 260.19 15.792L257.79 13.488C260.318 10.96 263.742 9.696 268.062 9.696H268.302C274.606 9.696 277.758 13.12 277.758 19.968V30.816C277.758 32.096 278.238 33.696 279.198 35.616L275.694 35.52C274.382 34.752 273.662 33.44 273.534 31.584C271.998 34.24 269.822 35.728 267.006 36.048C263.902 36.048 261.55 35.344 259.95 33.936C258.35 32.528 257.55 30.832 257.55 28.848V28.704C257.55 26.656 258.03 24.832 258.99 23.232C260.878 20.256 265.726 18.688 273.534 18.528L273.63 17.856ZM262.686 30.816C263.134 31.52 264.334 31.872 266.286 31.872C268.206 31.872 269.694 31.504 270.75 30.768C271.838 30.064 272.654 28.8 273.198 26.976C273.422 26.336 273.534 25.84 273.534 25.488V21.696C269.79 21.824 266.926 22.496 264.942 23.712C262.958 24.896 261.966 26.416 261.966 28.272C261.966 29.296 262.206 30.144 262.686 30.816Z" fill="#292929"/>
<path d="M301.061 35.664V20.208C301.061 15.92 299.285 13.776 295.733 13.776C293.173 13.776 291.205 14.576 289.829 16.176C288.421 17.776 287.717 20.144 287.717 23.28V35.664H283.253V9.792H287.717V15.696C288.421 13.84 289.573 12.384 291.173 11.328C292.741 10.24 294.293 9.696 295.829 9.696C302.293 9.728 305.525 12.816 305.525 18.96V35.664H301.061Z" fill="#292929"/>
</svg>
