<svg width="52" height="52" viewBox="0 0 52 52" fill="none" xmlns="http://www.w3.org/2000/svg">
<path d="M24 49.5455C24 48.4509 24.8954 47.5636 26 47.5636C27.1046 47.5636 28 48.4509 28 49.5455C28 50.64 27.1046 51.5273 26 51.5273C24.8954 51.5273 24 50.64 24 49.5455Z" fill="#D0C1F9"/>
<path d="M36 49.5455C36 48.4509 36.8954 47.5636 38 47.5636C39.1046 47.5636 40 48.4509 40 49.5455C40 50.64 39.1046 51.5273 38 51.5273C36.8954 51.5273 36 50.64 36 49.5455Z" fill="#D0C1F9"/>
<path d="M48 49.5455C48 48.4509 48.8954 47.5636 50 47.5636C51.1046 47.5636 52 48.4509 52 49.5455C52 50.64 51.1046 51.5273 50 51.5273C48.8954 51.5273 48 50.64 48 49.5455Z" fill="#D0C1F9"/>
<path d="M48 37.6545C48 36.56 48.8954 35.6727 50 35.6727C51.1046 35.6727 52 36.56 52 37.6545C52 38.7491 51.1046 39.6364 50 39.6364C48.8954 39.6364 48 38.7491 48 37.6545Z" fill="#D0C1F9"/>
<path d="M36 37.6545C36 36.56 36.8954 35.6727 38 35.6727C39.1046 35.6727 40 36.56 40 37.6545C40 38.7491 39.1046 39.6364 38 39.6364C36.8954 39.6364 36 38.7491 36 37.6545Z" fill="#D0C1F9"/>
<path d="M36 25.7636C36 24.6691 36.8954 23.7818 38 23.7818C39.1046 23.7818 40 24.6691 40 25.7636C40 26.8582 39.1046 27.7455 38 27.7455C36.8954 27.7455 36 26.8582 36 25.7636Z" fill="#D0C1F9"/>
<path d="M36 13.8727C36 12.7782 36.8954 11.8909 38 11.8909C39.1046 11.8909 40 12.7782 40 13.8727C40 14.9673 39.1046 15.8545 38 15.8545C36.8954 15.8545 36 14.9673 36 13.8727Z" fill="#D0C1F9"/>
<path d="M12 49.5455C12 48.4509 12.8954 47.5636 14 47.5636C15.1046 47.5636 16 48.4509 16 49.5455C16 50.64 15.1046 51.5273 14 51.5273C12.8954 51.5273 12 50.64 12 49.5455Z" fill="#D0C1F9"/>
<path d="M0 49.5455C0 48.4509 0.895431 47.5636 2 47.5636C3.10457 47.5636 4 48.4509 4 49.5455C4 50.64 3.10457 51.5273 2 51.5273C0.895431 51.5273 0 50.64 0 49.5455Z" fill="#D0C1F9"/>
<path d="M0 37.6545C0 36.56 0.895431 35.6727 2 35.6727C3.10457 35.6727 4 36.56 4 37.6545C4 38.7491 3.10457 39.6364 2 39.6364C0.895431 39.6364 0 38.7491 0 37.6545Z" fill="#D0C1F9"/>
<path d="M12 37.6545C12 36.56 12.8954 35.6727 14 35.6727C15.1046 35.6727 16 36.56 16 37.6545C16 38.7491 15.1046 39.6364 14 39.6364C12.8954 39.6364 12 38.7491 12 37.6545Z" fill="#D0C1F9"/>
<path d="M12 25.7636C12 24.6691 12.8954 23.7818 14 23.7818C15.1046 23.7818 16 24.6691 16 25.7636C16 26.8582 15.1046 27.7455 14 27.7455C12.8954 27.7455 12 26.8582 12 25.7636Z" fill="#D0C1F9"/>
<path d="M24 25.7636C24 24.6691 24.8954 23.7818 26 23.7818C27.1046 23.7818 28 24.6691 28 25.7636C28 26.8582 27.1046 27.7455 26 27.7455C24.8954 27.7455 24 26.8582 24 25.7636Z" fill="#D0C1F9"/>
<path d="M24 13.8727C24 12.7782 24.8954 11.8909 26 11.8909C27.1046 11.8909 28 12.7782 28 13.8727C28 14.9673 27.1046 15.8545 26 15.8545C24.8954 15.8545 24 14.9673 24 13.8727Z" fill="#D0C1F9"/>
<path d="M0 25.7636C0 24.6691 0.895431 23.7818 2 23.7818C3.10457 23.7818 4 24.6691 4 25.7636C4 26.8582 3.10457 27.7455 2 27.7455C0.895431 27.7455 0 26.8582 0 25.7636Z" fill="#D0C1F9"/>
<path d="M0 13.8727C0 12.7782 0.895431 11.8909 2 11.8909C3.10457 11.8909 4 12.7782 4 13.8727C4 14.9673 3.10457 15.8545 2 15.8545C0.895431 15.8545 0 14.9673 0 13.8727Z" fill="#D0C1F9"/>
<path d="M0 1.98182C0 0.88729 0.895431 0 2 0C3.10457 0 4 0.88729 4 1.98182C4 3.07635 3.10457 3.96364 2 3.96364C0.895431 3.96364 0 3.07635 0 1.98182Z" fill="#D0C1F9"/>
<path d="M12 13.8727C12 12.7782 12.8954 11.8909 14 11.8909C15.1046 11.8909 16 12.7782 16 13.8727C16 14.9673 15.1046 15.8545 14 15.8545C12.8954 15.8545 12 14.9673 12 13.8727Z" fill="#D0C1F9"/>
<path d="M12 1.98182C12 0.88729 12.8954 0 14 0C15.1046 0 16 0.88729 16 1.98182C16 3.07635 15.1046 3.96364 14 3.96364C12.8954 3.96364 12 3.07635 12 1.98182Z" fill="#D0C1F9"/>
<path d="M24 37.6545C24 36.56 24.8954 35.6727 26 35.6727C27.1046 35.6727 28 36.56 28 37.6545C28 38.7491 27.1046 39.6364 26 39.6364C24.8954 39.6364 24 38.7491 24 37.6545Z" fill="#D0C1F9"/>
</svg>
